<?xml version="1.0" ?><svg height="16px" version="1.1" viewBox="0 0 16 16" width="16px" xmlns="http://www.w3.org/2000/svg" xmlns:sketch="http://www.bohemiancoding.com/sketch/ns" xmlns:xlink="http://www.w3.org/1999/xlink"><title/><defs/><g fill="none" fill-rule="evenodd" id="Icons with numbers" stroke="none" stroke-width="1"><g fill="#000000" id="Group" transform="translate(-576.000000, -336.000000)"><path d="M590,344 C590,347.5 587.5,350 584,350 C580.5,350 578,347.5 578,344 C578,340.5 580.5,338 584,338 C587.5,338 590,340.5 590,344 L590,344 Z M592,344 C592,339.5 588.5,336 584,336 C579.5,336 576,339.5 576,344 C576,348.5 579.5,352 584,352 C588.5,352 592,348.5 592,344 L592,344 Z M581,344 L586,348 L586,340 L581,344 L581,344 Z M581,344" id="Shape"/></g></g></svg>