<?xml version="1.0" ?><svg height="16px" version="1.1" viewBox="0 0 16 16" width="16px" xmlns="http://www.w3.org/2000/svg" xmlns:sketch="http://www.bohemiancoding.com/sketch/ns" xmlns:xlink="http://www.w3.org/1999/xlink"><title/><defs/><g fill="none" fill-rule="evenodd" id="Icons with numbers" stroke="none" stroke-width="1"><g fill="#000000" id="Group" transform="translate(-624.000000, -336.000000)"><path d="M626,344 C626,347.5 628.5,350 632,350 C635.5,350 638,347.5 638,344 C638,340.5 635.5,338 632,338 C628.5,338 626,340.5 626,344 L626,344 Z M624,344 C624,339.5 627.5,336 632,336 C636.5,336 640,339.5 640,344 C640,348.5 636.5,352 632,352 C627.5,352 624,348.5 624,344 L624,344 Z M635,344 L630,348 L630,340 L635,344 L635,344 Z M635,344" id="Shape"/></g></g></svg>