<?xml version="1.0" ?><svg height="16px" version="1.1" viewBox="0 0 16 16" width="16px" xmlns="http://www.w3.org/2000/svg" xmlns:sketch="http://www.bohemiancoding.com/sketch/ns" xmlns:xlink="http://www.w3.org/1999/xlink"><title/><defs/><g fill="none" fill-rule="evenodd" id="Icons with numbers" stroke="none" stroke-width="1"><g fill="#000000" id="Group" transform="translate(-720.000000, 0.000000)"><path d="M722,10 L725,10 L725,11 L722,11 Z M723.995577,1 L733.004423,1 C733.555163,1 734,1.45078007 734,2.00684547 L734,13.9931545 C734,14.5500512 733.554265,15 733.004423,15 L723.995577,15 C723.444837,15 723,14.5492199 723,13.9931545 L723,12 L725.000193,12 C725.552371,12 726,11.5573397 726,11.0010434 L726,9.99895656 C726,9.44724809 725.556283,9 725.000193,9 L723,9 L723,7 L725.000193,7 C725.552371,7 726,6.55733967 726,6.00104344 L726,4.99895656 C726,4.44724809 725.556283,4 725.000193,4 L723,4 L723,2.00684547 C723,1.44994876 723.445735,1 723.995577,1 Z M722,5 L725,5 L725,6 L722,6 Z M722,5" id="Rectangle 143"/></g></g></svg>