<?xml version="1.0" ?><svg height="16px" version="1.1" viewBox="0 0 16 16" width="16px" xmlns="http://www.w3.org/2000/svg" xmlns:sketch="http://www.bohemiancoding.com/sketch/ns" xmlns:xlink="http://www.w3.org/1999/xlink"><title/><defs/><g fill="none" fill-rule="evenodd" id="Icons with numbers" stroke="none" stroke-width="1"><g fill="#FFFFFF" id="Group" transform="translate(-96.000000, -48.000000)"><path d="M98,49 L106,49 L106,54 L110,54 L110,64 L106,64 L98,64 L98,49 L98,49 Z M107.015625,49.0120239 L110.058838,53.0283203 L107.015625,53.0283203 L107.015625,49.0120239 L107.015625,49.0120239 Z M99,56 L99,57 L109,57 L109,56 L99,56 Z M99,54 L99,55 L105,55 L105,54 L99,54 Z M99,52 L99,53 L105,53 L105,52 L99,52 Z M99,50 L99,51 L105,51 L105,50 L99,50 Z M99,62 L99,63 L109,63 L109,62 L99,62 Z M99,60 L99,61 L109,61 L109,60 L99,60 Z M99,58 L99,59 L109,59 L109,58 L99,58 Z M99,58" id="Shape copy"/></g></g></svg>